<svg xmlns="http://www.w3.org/2000/svg" viewBox="0 0 128 128">
  <path fill="#59bfc1" d="M100.333 83v-5.583s-16-1.5-16 0-22.708 0-22.708 0v5.458s9.875 3 7.875 12-12.875 7.5-12.875 7.5H39.5l-9.125-13.75 3.268-32.46a9.849 9.849 0 0 1-4.055-13.396L19.5 38.083l-2.5 4.25.583 10.917L24 54.917S14.833 67.583 17.833 82s1.25 11.083 1.25 11.083S4.917 90.75 2.417 107.25l2.833 1.667s13.417-9.334 25.5 3.5h48.917l1.25-3.584H113S115.583 95.167 100.333 83Z"></path>
  <path fill="#fc785e" d="M71.285 25.234a15.969 15.969 0 0 1-19.934 3.814L34.125 46.375l4 4.875 17.75-14.125L61 55l-15.875 6 .625 34 3.875 4 5.625-5.125v-26.5h28.625L85 61.25Z"></path>
  <path fill="#2d4356" d="M59 3a12 12 0 1 0 12 12A12.01 12.01 0 0 0 59 3Zm0 20a8 8 0 1 1 8-8 8.01 8.01 0 0 1-8 8Z"></path>
  <path fill="#e1ebf4" d="M67 15a8 8 0 1 1-8-8 8.01 8.01 0 0 1 8 8Z"></path>
  <path fill="#2d4356" d="M126 70a2.006 2.006 0 0 0-2 2v4h-4V42a3.999 3.999 0 0 0-4-4H94a3.999 3.999 0 0 0-4 4v34h-4v-6a3.997 3.997 0 0 0-.55-2 3.998 3.998 0 0 0 .55-2v-3a4.022 4.022 0 0 0-.2-1.24l-12.04-37a3.943 3.943 0 0 0-1.01-1.62 16.077 16.077 0 0 1-2.63 3.34L82 63v3H53v27a3 3 0 0 1-6 0V62l17.67-6-7.86-21.79-17.32 14.7a1.892 1.892 0 0 1-1.2.44 1.849 1.849 0 0 1-1.38-.62l-.03-.03a1.872 1.872 0 0 1 .06-2.56L52.81 30l.41-.1a15.802 15.802 0 0 1-3.83-2.14l-15.3 15.57a5.883 5.883 0 0 0 7.98 8.63L55 40.99l4.52 12.53-13.81 4.69A4.005 4.005 0 0 0 43 62v31a7 7 0 0 0 14 0V75.1c1.57 1.88 2.89 3.42 2.97 3.51a3.92 3.92 0 0 0 1.03.83v4.03c.16.08.32.17.49.24.53.22 5.51 2.6 5.51 9.45 0 5.47-3.82 6.61-5.28 6.84H41.04l-7.9-10.91 3.45-31.59a8.626 8.626 0 0 0 1.15-.18 9.88 9.88 0 0 1-4.97-1.68L29 90.19 39 104h23s9-.93 9-10.84A14.075 14.075 0 0 0 63 80h34.5l.5 4.24A24.83 24.83 0 0 1 112 107H79v4H31.78a22.287 22.287 0 0 0-16.56-7A30.066 30.066 0 0 0 4 106.33s2.68-11.19 12.1-11.19a15.102 15.102 0 0 1 4.93.91c.57.2 1.1.41 1.62.63 0 0-10.26-22.87 5.35-43.68h-7a2.012 2.012 0 0 1-2-2v-8.02A1.994 1.994 0 0 1 21 41a2.099 2.099 0 0 1 .96.24l6.8 3.68a9.56 9.56 0 0 1 1.78-3.58l-6.68-3.61a5.998 5.998 0 0 0-7.01.93A5.929 5.929 0 0 0 15 42.98V51a6.004 6.004 0 0 0 5.73 5.99c-7.06 13.29-5.84 26.38-4.02 34.17-.2-.01-.41-.02-.61-.02-9.92 0-14.72 8.96-15.99 14.26a3.965 3.965 0 0 0 1.28 3.95 3.976 3.976 0 0 0 2.61.98c.11 0 .21-.02.32-.03A11.995 11.995 0 1 0 28 113a.915.915 0 0 0-.01-.16 9.224 9.224 0 0 1 .7.7 4.009 4.009 0 0 0 3.09 1.46H79a3.999 3.999 0 0 0 4-4h4.18a11.021 11.021 0 0 0-.18 2 12 12 0 0 0 24 0 11.021 11.021 0 0 0-.18-2H112a3.999 3.999 0 0 0 4-4c0-.5-.01-.98-.03-1.46a7.973 7.973 0 0 0 5.11-9.96l-1.51-4.87a7.969 7.969 0 0 0-7.64-5.63H107a4.88 4.88 0 0 0-.55.05 31.21 31.21 0 0 0-4.72-3.45l-.2-1.68H126a2.006 2.006 0 0 0 2-2v-6a2.006 2.006 0 0 0-2-2Zm-44 6H63s-2.72-3.16-5-6h24Zm-66 45a7.981 7.981 0 0 1-6.8-12.19 23.831 23.831 0 0 1 6.02-.81 19.215 19.215 0 0 1 8.08 1.75A7.981 7.981 0 0 1 16 121Zm83 0a7.998 7.998 0 0 1-8-8 8.24 8.24 0 0 1 .26-2h15.48a8.24 8.24 0 0 1 .26 2 7.998 7.998 0 0 1-8 8Zm12.93-31.92a4 4 0 0 1 3.82 2.82l1.51 4.87a3.996 3.996 0 0 1-1.74 4.6 27.834 27.834 0 0 0-5.39-12.29ZM102 42h6v6h-6Zm14 34H94V42h4v6a3.999 3.999 0 0 0 4 4h6a3.999 3.999 0 0 0 4-4v-6h4Z"></path>
  <path fill="#fc785e" d="M115.52 101.37a27.834 27.834 0 0 0-5.39-12.29h1.8a4 4 0 0 1 3.82 2.82l1.51 4.87a3.996 3.996 0 0 1-1.74 4.6Z"></path>
  <path fill="#2d4356" d="M83.142 53.59 73.76 24.76a3.943 3.943 0 0 0-1.01-1.62 16.077 16.077 0 0 1-2.63 3.34l8.82 27.11Z"></path>
  <path fill="#e1ebf4" d="M82 70v6H63s-2.72-3.16-5-6Z"></path>
  <path fill="#ffdb80" d="M102 42h6v6h-6z"></path>
  <path fill="#d68751" d="M116 42v34H94V42h4v6a3.999 3.999 0 0 0 4 4h6a3.999 3.999 0 0 0 4-4v-6zm-9 71a8 8 0 0 1-16 0 8.24 8.24 0 0 1 .26-2h15.48a8.24 8.24 0 0 1 .26 2zm-83 0a8 8 0 1 1-14.8-4.19 23.831 23.831 0 0 1 6.02-.81 19.215 19.215 0 0 1 8.08 1.75A7.992 7.992 0 0 1 24 113z"></path>
  <path fill="#d6f2f2" d="m28.44 46.75-6.48-3.51A2.099 2.099 0 0 0 21 43a1.994 1.994 0 0 0-2 1.98v-2A1.994 1.994 0 0 1 21 41a2.099 2.099 0 0 1 .96.24l6.79 3.67zm-5.79 51.93c-.52-.22-1.05-.43-1.62-.63a15.102 15.102 0 0 0-4.93-.91c-6.67 0-9.96 5.62-11.31 8.89-.26.09-.52.19-.79.3 0 0 2.68-11.19 12.1-11.19a15.102 15.102 0 0 1 4.93.91c.25.09.5.18.74.28.5 1.51.88 2.35.88 2.35z" opacity=".3"></path>
  <path fill="#9fa5aa" d="M67 15a8 8 0 0 1-16 0 8.266 8.266 0 0 1 .06-1 8.003 8.003 0 0 0 15.88 0 8.266 8.266 0 0 1 .06 1Z" opacity=".5"></path>
  <path fill="#fff" d="M67 15a8.266 8.266 0 0 1-.06 1 8.003 8.003 0 0 0-15.88 0 8.266 8.266 0 0 1-.06-1 8 8 0 0 1 16 0Z" opacity=".5"></path>
  <path fill="#ad9359" d="M102 46h6v2h-6z" opacity=".45"></path>
  <path fill="#e5d0c3" d="M94 42h4v2h-4zM112 42h4v2h-4z" opacity=".3"></path>
  <path fill="#f9edd2" d="M102 42h6v2h-6z" opacity=".5"></path>
  <path fill="#72492d" d="M94 74h22v2H94z" opacity=".4"></path>
  <path fill="#a54b3f" d="M53 64h29v2H53zM53 91v2a3 3 0 0 1-6 0v-2a3 3 0 0 0 6 0Z" opacity=".5"></path>
  <path fill="#18665c" d="M79 109v2H31.78a22.287 22.287 0 0 0-16.56-7A30.066 30.066 0 0 0 4 106.33a17.286 17.286 0 0 1 .79-2.3A29.473 29.473 0 0 1 15.22 102a22.287 22.287 0 0 1 16.56 7zm33-2H79v-2h32.93c.05.65.07 1.32.07 2z" opacity=".3"></path>
  <path fill="#72492d" d="M107 113a8 8 0 0 1-16 0 6.371 6.371 0 0 1 .07-.98 7.995 7.995 0 0 0 15.86 0 6.371 6.371 0 0 1 .07.98zm-83 0a8 8 0 1 1-15.94-.98 8.001 8.001 0 0 0 15.87.01 6.242 6.242 0 0 1 .07.97z" opacity=".4"></path>
</svg>
